<svg xmlns="http://www.w3.org/2000/svg" width="191.703" height="29.047" viewBox="0 0 191.703 29.047">
  <g id="Group_1229" data-name="Group 1229" transform="translate(-1300.932 -222.611)">
    <path id="Path_302" data-name="Path 302" d="M1300.931,250.885c9.538-9.213,14.246-15.49,14.246-20.6,0-3.571-2.6-5.56-6.17-5.56a13.178,13.178,0,0,0-7.061,2.151l-.365-.771a13.252,13.252,0,0,1,8.969-3.49c4.87,0,8.523,2.759,8.523,7.427,0,6.129-7.062,12.649-13.677,18.209h14.61l-.811,3.409h-18.264Z" fill="#fff"/>
    <path id="Path_303" data-name="Path 303" d="M1358.4,223.091h16.681v1.38H1362.3v12.542h10.106v1.38H1362.3v13.515h-3.9Z" transform="translate(-30.007 -0.251)" fill="#fff"/>
    <rect id="Rectangle_508" data-name="Rectangle 508" width="3.896" height="28.816" transform="translate(1352.787 222.841)" fill="#fff"/>
    <path id="Path_304" data-name="Path 304" d="M1437.972,223.091h16.681v1.38h-12.785v12.542h10.106v1.38h-10.106v13.515h-3.9Z" transform="translate(-71.549 -0.251)" fill="#fff"/>
    <path id="Path_305" data-name="Path 305" d="M1493.771,224.471h-9.943v-1.38h23.783v1.38h-9.944v27.436h-3.9Z" transform="translate(-95.49 -0.251)" fill="#fff"/>
    <path id="Path_306" data-name="Path 306" d="M1548.874,223.091h18.3v1.38H1552.77v12.136h10.106v1.38H1552.77v12.541h14.408v1.38h-18.3Z" transform="translate(-129.451 -0.251)" fill="#fff"/>
    <path id="Path_307" data-name="Path 307" d="M1603.306,223.091h18.3v1.38H1607.2v12.136h10.106v1.38H1607.2v12.541h14.408v1.38h-18.3Z" transform="translate(-157.87 -0.251)" fill="#fff"/>
    <path id="Path_308" data-name="Path 308" d="M1657.1,223.091h2.314l17.654,23.5-.041-23.5h1.542l-.041,28.816h-2.313l-17.655-23.5.041,23.5h-1.543Z" transform="translate(-185.934 -0.251)" fill="#fff"/>
  </g>
</svg>
