<svg xmlns="http://www.w3.org/2000/svg" width="312.25" height="29.047" viewBox="0 0 312.25 29.047">
  <g id="Group_1230" data-name="Group 1230" transform="translate(-166 -4835.814)">
    <g id="Group_1149" data-name="Group 1149" transform="translate(-1134.932 4613.203)">
      <path id="Path_302" data-name="Path 302" d="M1300.931,250.885c9.538-9.213,14.246-15.49,14.246-20.6,0-3.571-2.6-5.56-6.17-5.56a13.178,13.178,0,0,0-7.061,2.151l-.365-.771a13.252,13.252,0,0,1,8.969-3.49c4.87,0,8.523,2.759,8.523,7.427,0,6.129-7.062,12.649-13.677,18.209h14.61l-.811,3.409h-18.264Z" fill="#886c51"/>
      <path id="Path_303" data-name="Path 303" d="M1358.4,223.091h16.681v1.38H1362.3v12.542h10.106v1.38H1362.3v13.515h-3.9Z" transform="translate(-30.007 -0.251)" fill="#886c51"/>
      <rect id="Rectangle_508" data-name="Rectangle 508" width="3.896" height="28.816" transform="translate(1352.787 222.841)" fill="#886c51"/>
      <path id="Path_304" data-name="Path 304" d="M1437.972,223.091h16.681v1.38h-12.785v12.542h10.106v1.38h-10.106v13.515h-3.9Z" transform="translate(-71.549 -0.251)" fill="#886c51"/>
      <path id="Path_305" data-name="Path 305" d="M1493.771,224.471h-9.943v-1.38h23.783v1.38h-9.944v27.436h-3.9Z" transform="translate(-95.49 -0.251)" fill="#886c51"/>
      <path id="Path_306" data-name="Path 306" d="M1548.874,223.091h18.3v1.38H1552.77v12.136h10.106v1.38H1552.77v12.541h14.408v1.38h-18.3Z" transform="translate(-129.451 -0.251)" fill="#886c51"/>
      <path id="Path_307" data-name="Path 307" d="M1603.306,223.091h18.3v1.38H1607.2v12.136h10.106v1.38H1607.2v12.541h14.408v1.38h-18.3Z" transform="translate(-157.87 -0.251)" fill="#886c51"/>
      <path id="Path_308" data-name="Path 308" d="M1657.1,223.091h2.314l17.654,23.5-.041-23.5h1.542l-.041,28.816h-2.313l-17.655-23.5.041,23.5h-1.543Z" transform="translate(-185.934 -0.251)" fill="#886c51"/>
    </g>
    <g id="Group_1161" data-name="Group 1161" transform="translate(406 4840.352)">
      <path id="Path_344" data-name="Path 344" d="M340.94,251.348h9.926c10.122,0,12.443,5.089,12.443,9.031v.782c0,4.056-1.763,9.591-12.414,9.591H340.94Zm5.369,15.071h4.333c6.514,0,7.1-3.187,7.1-5.369v-.169c0-2.152-.644-5.227-7.1-5.227h-4.333Z" transform="translate(-340.94 -251.124)" fill="#886c51"/>
      <path id="Path_345" data-name="Path 345" d="M363.039,251.347h14.287c5.564,0,6.935,2.433,6.935,4.586v.279a3.987,3.987,0,0,1-3.635,3.858c2.264.28,4.612,1.678,4.612,4.781v.28c0,2.657-1.593,5.619-7.828,5.619H363.039Zm5.369,4.055v3.467h8.136c1.621,0,2.125-.783,2.125-1.705v-.057c0-.922-.532-1.705-2.125-1.705Zm0,7.269V266.5h8.556c1.9,0,2.432-.978,2.432-1.958v-.111c0-.95-.532-1.762-2.432-1.762Z" transform="translate(-336.923 -251.124)" fill="#886c51"/>
      <path id="Path_346" data-name="Path 346" d="M394.53,271.122c-9.086,0-10.15-4.082-10.15-6.431v-.307H390.2c.084.866.447,2.8,4.585,2.8h.195c4.055,0,4.585-1.23,4.585-2.321s-.642-1.9-3.829-1.985l-2.74-.084c-6.431-.195-8.445-2.74-8.445-5.675v-.223c0-2.8,1.51-5.733,9.675-5.733h.895c8.611,0,9.758,3.075,9.758,5.649v.279h-5.7c-.139-.839-.642-2.1-4.417-2.1h-.25c-3.58,0-4.279.7-4.279,1.678,0,.923.56,1.761,3.608,1.873l2.88.112c6.849.279,8.583,2.46,8.583,5.619v.307c0,2.853-1.286,6.543-10.009,6.543Z" transform="translate(-333.045 -251.158)" fill="#886c51"/>
    </g>
  </g>
</svg>
