<svg id="Group_1232" data-name="Group 1232" xmlns="http://www.w3.org/2000/svg" width="106.611" height="29.457" viewBox="0 0 106.611 29.457">
  <path id="Path_344" data-name="Path 344" d="M340.94,251.348h14.646c14.936,0,18.36,7.508,18.36,13.325v1.154c0,5.984-2.6,14.152-18.318,14.152H340.94Zm7.922,22.237h6.394c9.612,0,10.48-4.7,10.48-7.922v-.249c0-3.175-.95-7.712-10.48-7.712h-6.394Z" transform="translate(-340.94 -251.018)" fill="#181818"/>
  <path id="Path_345" data-name="Path 345" d="M363.039,251.347h21.082c8.21,0,10.232,3.59,10.232,6.767v.411a5.884,5.884,0,0,1-5.364,5.693c3.341.413,6.806,2.476,6.806,7.055v.413c0,3.92-2.351,8.291-11.551,8.291H363.039Zm7.922,5.983v5.116h12.006c2.392,0,3.135-1.156,3.135-2.516v-.084c0-1.36-.785-2.516-3.135-2.516Zm0,10.725v5.653h12.625c2.8,0,3.589-1.444,3.589-2.889v-.164c0-1.4-.785-2.6-3.589-2.6Z" transform="translate(-324.503 -251.019)" fill="#181818"/>
  <path id="Path_346" data-name="Path 346" d="M399.357,280.615c-13.408,0-14.977-6.023-14.977-9.489v-.453h8.583c.124,1.278.659,4.126,6.766,4.126h.288c5.983,0,6.766-1.815,6.766-3.425s-.947-2.806-5.65-2.929l-4.044-.124c-9.49-.288-12.461-4.044-12.461-8.373v-.33c0-4.126,2.229-8.459,14.276-8.459h1.32c12.707,0,14.4,4.537,14.4,8.335v.411h-8.417c-.206-1.238-.947-3.1-6.518-3.1h-.37c-5.282,0-6.314,1.03-6.314,2.476,0,1.362.827,2.6,5.324,2.764l4.25.166c10.107.411,12.665,3.63,12.665,8.291v.453c0,4.209-1.9,9.655-14.77,9.655Z" transform="translate(-308.63 -251.159)" fill="#181818"/>
</svg>
