<svg id="Group_1233" data-name="Group 1233" xmlns="http://www.w3.org/2000/svg" width="136.482" height="84.254" viewBox="0 0 136.482 84.254">
  <g id="Group_1223" data-name="Group 1223" transform="translate(11.073 77.082)">
    <path id="Path_390" data-name="Path 390" d="M116.831,814.337h1.317l1.654,5.141,1.7-5.161h1.03l1.7,5.161,1.654-5.141h1.278l-2.417,6.983h-1.05l-1.7-4.983-1.7,4.983h-1.05Z" transform="translate(-116.831 -814.218)" fill="#7d888d"/>
    <path id="Path_391" data-name="Path 391" d="M247.686,814.527H248.9v6.934h-1.218Z" transform="translate(-235.284 -814.408)" fill="#7d888d"/>
    <path id="Path_392" data-name="Path 392" d="M283.535,819.5l.733-.872a3.194,3.194,0,0,0,2.189.9c.753,0,1.228-.346,1.228-.872v-.019c0-.5-.277-.763-1.565-1.06-1.476-.356-2.308-.793-2.308-2.07v-.02a2.121,2.121,0,0,1,2.368-2.011,3.843,3.843,0,0,1,2.516.872l-.654.921a3.15,3.15,0,0,0-1.882-.713c-.713,0-1.129.366-1.129.823v.019c0,.535.317.773,1.644,1.09,1.466.356,2.229.882,2.229,2.031v.02c0,1.3-1.02,2.07-2.477,2.07A4.273,4.273,0,0,1,283.535,819.5Z" transform="translate(-267.735 -813.461)" fill="#7d888d"/>
    <path id="Path_393" data-name="Path 393" d="M363.7,814.527h5.141v1.09h-3.923v1.8h3.477v1.089h-3.477v1.863h3.973v1.09H363.7Z" transform="translate(-340.301 -814.408)" fill="#7d888d"/>
    <path id="Path_394" data-name="Path 394" d="M481.8,814.527h1.129l3.715,4.794v-4.794h1.2v6.934h-1.02L483,816.528v4.933h-1.2Z" transform="translate(-447.211 -814.408)" fill="#7d888d"/>
    <path id="Path_395" data-name="Path 395" d="M567.736,814h1.129l3.051,6.984h-1.288l-.7-1.674h-3.279l-.713,1.674h-1.248Zm1.743,4.23-1.2-2.774-1.189,2.774Z" transform="translate(-522.237 -813.932)" fill="#7d888d"/>
    <path id="Path_396" data-name="Path 396" d="M660.528,814.527h2.586a3.456,3.456,0,0,1,3.685,3.447v.02a3.472,3.472,0,0,1-3.685,3.467h-2.586Zm2.586,5.825a2.26,2.26,0,0,0,2.407-2.338v-.02a2.275,2.275,0,0,0-2.407-2.357h-1.367v4.715Z" transform="translate(-608.996 -814.408)" fill="#7d888d"/>
    <path id="Path_397" data-name="Path 397" d="M748.741,814.527h5.141v1.09h-3.923v1.8h3.477v1.089h-3.477v1.863h3.972v1.09h-5.191Z" transform="translate(-688.848 -814.408)" fill="#7d888d"/>
    <path id="Path_398" data-name="Path 398" d="M827.442,814.527h1.219v5.825h3.645v1.109h-4.864Z" transform="translate(-760.09 -814.408)" fill="#7d888d"/>
    <path id="Path_399" data-name="Path 399" d="M940.215,814.527H942.8a3.456,3.456,0,0,1,3.685,3.447v.02a3.472,3.472,0,0,1-3.685,3.467h-2.586Zm2.586,5.825a2.26,2.26,0,0,0,2.407-2.338v-.02a2.275,2.275,0,0,0-2.407-2.357h-1.367v4.715Z" transform="translate(-862.174 -814.408)" fill="#7d888d"/>
    <path id="Path_400" data-name="Path 400" d="M1030.308,814.527h5.141v1.09h-3.923v1.8H1035v1.089h-3.477v1.863h3.973v1.09h-5.191Z" transform="translate(-943.728 -814.408)" fill="#7d888d"/>
    <path id="Path_401" data-name="Path 401" d="M1104.307,819.5l.733-.872a3.194,3.194,0,0,0,2.189.9c.753,0,1.228-.346,1.228-.872v-.019c0-.5-.277-.763-1.565-1.06-1.476-.356-2.308-.793-2.308-2.07v-.02a2.121,2.121,0,0,1,2.368-2.011,3.843,3.843,0,0,1,2.516.872l-.654.921a3.152,3.152,0,0,0-1.882-.713c-.713,0-1.129.366-1.129.823v.019c0,.535.317.773,1.644,1.09,1.466.356,2.229.882,2.229,2.031v.02c0,1.3-1.02,2.07-2.477,2.07A4.273,4.273,0,0,1,1104.307,819.5Z" transform="translate(-1010.714 -813.461)" fill="#7d888d"/>
    <path id="Path_402" data-name="Path 402" d="M1185.2,814.527h1.219v6.934H1185.2Z" transform="translate(-1083.944 -814.408)" fill="#7d888d"/>
    <path id="Path_403" data-name="Path 403" d="M1222.724,816.876v-.02a3.533,3.533,0,0,1,3.576-3.586,3.746,3.746,0,0,1,2.665.941l-.773.922a2.715,2.715,0,0,0-1.942-.743,2.346,2.346,0,0,0-2.249,2.447v.02a2.316,2.316,0,0,0,2.358,2.476,2.83,2.83,0,0,0,1.674-.525v-1.3h-1.773v-1.06h2.952v2.912a4.42,4.42,0,0,1-2.893,1.08A3.44,3.44,0,0,1,1222.724,816.876Z" transform="translate(-1117.907 -813.27)" fill="#7d888d"/>
    <path id="Path_404" data-name="Path 404" d="M1316.269,814.527h1.129l3.715,4.794v-4.794h1.2v6.934h-1.02l-3.824-4.933v4.933h-1.2Z" transform="translate(-1202.586 -814.408)" fill="#7d888d"/>
  </g>
  <g id="Group_1228" data-name="Group 1228">
    <g id="Group_1225" data-name="Group 1225" transform="translate(75.115)">
      <g id="Group_1224" data-name="Group 1224">
        <rect id="Rectangle_544" data-name="Rectangle 544" width="1.478" height="67.839" fill="#041c2c"/>
      </g>
    </g>
    <g id="Group_1226" data-name="Group 1226" transform="translate(0 10.942)">
      <path id="Path_405" data-name="Path 405" d="M47.855,115.448v1.478H53.56L43.328,148.558,33.1,116.926h2.34v-1.478H22.505v1.478h2.363l3.093,9.563-7.139,22.07L10.591,116.926h2.34v-1.478H0v1.478H2.363L16.75,161.4h1.472L28.738,128.89,39.255,161.4h1.473l3.081-9.524,11.306-34.952h5.673v-1.478Z" transform="translate(0 -115.448)" fill="#041c2c"/>
    </g>
    <g id="Group_1227" data-name="Group 1227" transform="translate(93.081 10.942)">
      <path id="Path_406" data-name="Path 406" d="M1012.536,115.441v1.478h5.729V147.09l-20.589-31.649H982.069v1.478h5.724v43h-5.724V161.4H995v-1.478H989.27v-43l27.973,43,.962,1.478h1.537V116.919h5.729v-1.478Z" transform="translate(-982.069 -115.441)" fill="#041c2c"/>
    </g>
  </g>
</svg>
